<svg width="1184" height="798" viewBox="0 0 1184 798" fill="none" xmlns="http://www.w3.org/2000/svg">
<rect x="6" y="6" width="1172" height="786" fill="white"/>
<path d="M212.984 149V113.96H222.776C225.08 113.96 227.08 114.408 228.776 115.304C230.472 116.168 231.784 117.416 232.712 119.048C233.672 120.648 234.152 122.52 234.152 124.664V138.2C234.152 140.408 233.672 142.312 232.712 143.912C231.784 145.512 230.472 146.76 228.776 147.656C227.08 148.552 225.08 149 222.776 149H212.984ZM218.168 144.296H222.776C224.696 144.296 226.2 143.768 227.288 142.712C228.408 141.624 228.968 140.12 228.968 138.2V124.664C228.968 122.808 228.408 121.352 227.288 120.296C226.2 119.208 224.696 118.664 222.776 118.664H218.168V144.296ZM252.181 149.48C250.037 149.48 248.165 149.064 246.565 148.232C244.965 147.368 243.717 146.168 242.821 144.632C241.957 143.096 241.525 141.304 241.525 139.256V132.344C241.525 130.296 241.957 128.504 242.821 126.968C243.717 125.432 244.965 124.248 246.565 123.416C248.165 122.552 250.037 122.12 252.181 122.12C254.357 122.12 256.245 122.552 257.845 123.416C259.445 124.248 260.677 125.432 261.541 126.968C262.437 128.504 262.885 130.296 262.885 132.344V137.048H246.517V139.256C246.517 143.256 248.421 145.256 252.229 145.256C255.333 145.256 257.125 144.216 257.605 142.136H262.741C262.357 144.376 261.205 146.168 259.285 147.512C257.365 148.824 254.997 149.48 252.181 149.48ZM246.517 132.344V133.544L257.845 133.496V132.296C257.845 130.344 257.365 128.856 256.405 127.832C255.445 126.776 254.037 126.248 252.181 126.248C250.325 126.248 248.917 126.776 247.957 127.832C246.997 128.888 246.517 130.392 246.517 132.344ZM300.576 149V113.96H305.76V144.248H321.12V149H300.576ZM328.013 149V144.296H337.277V127.304H329.213V122.6H342.317V144.296H350.861V149H328.013ZM339.341 118.04C338.221 118.04 337.325 117.752 336.653 117.176C335.981 116.568 335.645 115.768 335.645 114.776C335.645 113.752 335.981 112.952 336.653 112.376C337.325 111.768 338.221 111.464 339.341 111.464C340.461 111.464 341.357 111.768 342.029 112.376C342.701 112.952 343.037 113.752 343.037 114.776C343.037 115.768 342.701 116.568 342.029 117.176C341.357 117.752 340.461 118.04 339.341 118.04ZM356.938 149V122.6H362.074V127.64H362.122C362.378 125.912 363.114 124.568 364.33 123.608C365.546 122.616 367.146 122.12 369.13 122.12C371.754 122.12 373.85 122.968 375.418 124.664C376.986 126.328 377.77 128.584 377.77 131.432V149H372.586V132.008C372.586 130.28 372.122 128.952 371.194 128.024C370.266 127.096 369.002 126.632 367.402 126.632C365.77 126.632 364.474 127.128 363.514 128.12C362.586 129.112 362.122 130.52 362.122 132.344V149H356.938ZM396.088 149.48C393.944 149.48 392.072 149.064 390.472 148.232C388.872 147.368 387.624 146.168 386.728 144.632C385.864 143.096 385.432 141.304 385.432 139.256V132.344C385.432 130.296 385.864 128.504 386.728 126.968C387.624 125.432 388.872 124.248 390.472 123.416C392.072 122.552 393.944 122.12 396.088 122.12C398.264 122.12 400.152 122.552 401.752 123.416C403.352 124.248 404.584 125.432 405.448 126.968C406.344 128.504 406.792 130.296 406.792 132.344V137.048H390.424V139.256C390.424 143.256 392.328 145.256 396.136 145.256C399.24 145.256 401.032 144.216 401.512 142.136H406.648C406.264 144.376 405.112 146.168 403.192 147.512C401.272 148.824 398.904 149.48 396.088 149.48ZM390.424 132.344V133.544L401.752 133.496V132.296C401.752 130.344 401.272 128.856 400.312 127.832C399.352 126.776 397.944 126.248 396.088 126.248C394.232 126.248 392.824 126.776 391.864 127.832C390.904 128.888 390.424 130.392 390.424 132.344ZM422.229 149.48C419.477 149.48 417.301 148.776 415.701 147.368C414.133 145.928 413.349 143.976 413.349 141.512C413.349 139.016 414.181 137.064 415.845 135.656C417.541 134.216 419.861 133.496 422.805 133.496H430.149V131.048C430.149 129.64 429.685 128.536 428.757 127.736C427.861 126.904 426.613 126.488 425.013 126.488C423.573 126.488 422.373 126.792 421.413 127.4C420.485 128.008 419.925 128.84 419.733 129.896H414.645C414.933 127.528 416.021 125.64 417.909 124.232C419.829 122.824 422.245 122.12 425.157 122.12C428.293 122.12 430.773 122.92 432.597 124.52C434.421 126.12 435.333 128.264 435.333 130.952V149H430.293V144.152H430.197C429.941 145.816 429.093 147.128 427.653 148.088C426.245 149.016 424.437 149.48 422.229 149.48ZM423.765 145.496C425.621 145.496 427.141 145.032 428.325 144.104C429.541 143.176 430.149 141.96 430.149 140.456V137H422.901C421.557 137 420.485 137.368 419.685 138.104C418.917 138.84 418.533 139.848 418.533 141.128C418.533 142.504 418.997 143.576 419.925 144.344C420.853 145.112 422.133 145.496 423.765 145.496Z" fill="#2F2F2F"/>
<path d="M719.984 684V648.96H729.776C732.08 648.96 734.08 649.408 735.776 650.304C737.472 651.168 738.784 652.416 739.712 654.048C740.672 655.648 741.152 657.52 741.152 659.664V673.2C741.152 675.408 740.672 677.312 739.712 678.912C738.784 680.512 737.472 681.76 735.776 682.656C734.08 683.552 732.08 684 729.776 684H719.984ZM725.168 679.296H729.776C731.696 679.296 733.2 678.768 734.288 677.712C735.408 676.624 735.968 675.12 735.968 673.2V659.664C735.968 657.808 735.408 656.352 734.288 655.296C733.2 654.208 731.696 653.664 729.776 653.664H725.168V679.296ZM759.181 684.48C757.037 684.48 755.165 684.064 753.565 683.232C751.965 682.368 750.717 681.168 749.821 679.632C748.957 678.096 748.525 676.304 748.525 674.256V667.344C748.525 665.296 748.957 663.504 749.821 661.968C750.717 660.432 751.965 659.248 753.565 658.416C755.165 657.552 757.037 657.12 759.181 657.12C761.357 657.12 763.245 657.552 764.845 658.416C766.445 659.248 767.677 660.432 768.541 661.968C769.437 663.504 769.885 665.296 769.885 667.344V672.048H753.517V674.256C753.517 678.256 755.421 680.256 759.229 680.256C762.333 680.256 764.125 679.216 764.605 677.136H769.741C769.357 679.376 768.205 681.168 766.285 682.512C764.365 683.824 761.997 684.48 759.181 684.48ZM753.517 667.344V668.544L764.845 668.496V667.296C764.845 665.344 764.365 663.856 763.405 662.832C762.445 661.776 761.037 661.248 759.181 661.248C757.325 661.248 755.917 661.776 754.957 662.832C753.997 663.888 753.517 665.392 753.517 667.344ZM806.424 684V648.96H816.744C820.04 648.96 822.632 649.776 824.52 651.408C826.44 653.008 827.4 655.2 827.4 657.984C827.4 659.968 826.872 661.632 825.816 662.976C824.792 664.288 823.4 665.136 821.64 665.52C823.624 665.936 825.208 666.896 826.392 668.4C827.608 669.904 828.216 671.824 828.216 674.16C828.216 677.168 827.24 679.568 825.288 681.36C823.368 683.12 820.744 684 817.416 684H806.424ZM811.464 663.648H816.696C818.392 663.648 819.736 663.2 820.728 662.304C821.752 661.376 822.264 660.112 822.264 658.512C822.264 656.944 821.768 655.712 820.776 654.816C819.784 653.888 818.44 653.424 816.744 653.424H811.464V663.648ZM811.464 679.536H816.984C818.84 679.536 820.312 679.04 821.4 678.048C822.488 677.024 823.032 675.648 823.032 673.92C823.032 672.128 822.488 670.688 821.4 669.6C820.312 668.512 818.84 667.968 816.984 667.968H811.464V679.536ZM849.605 684C847.109 684 845.109 683.28 843.605 681.84C842.133 680.368 841.397 678.416 841.397 675.984V653.664H832.517V648.96H846.581V675.984C846.581 677.008 846.869 677.824 847.445 678.432C848.021 679.008 848.805 679.296 849.797 679.296H857.765V684H849.605ZM874.306 684.432C871.01 684.432 868.402 683.52 866.482 681.696C864.594 679.84 863.65 677.344 863.65 674.208V667.392C863.65 664.256 864.594 661.776 866.482 659.952C868.402 658.096 871.01 657.168 874.306 657.168C877.602 657.168 880.21 658.096 882.13 659.952C884.05 661.776 885.01 664.256 885.01 667.392V674.208C885.01 677.344 884.05 679.84 882.13 681.696C880.21 683.52 877.602 684.432 874.306 684.432ZM874.306 679.872C876.034 679.872 877.378 679.392 878.338 678.432C879.33 677.44 879.826 676.032 879.826 674.208V667.392C879.826 665.568 879.33 664.176 878.338 663.216C877.378 662.224 876.034 661.728 874.306 661.728C872.578 661.728 871.234 662.224 870.274 663.216C869.314 664.176 868.834 665.568 868.834 667.392V674.208C868.834 676.032 869.314 677.44 870.274 678.432C871.234 679.392 872.578 679.872 874.306 679.872ZM908.272 692.64V685.104L908.416 678.96H908.224C907.968 680.688 907.216 682.048 905.968 683.04C904.72 684 903.136 684.48 901.216 684.48C898.528 684.48 896.4 683.584 894.832 681.792C893.296 680 892.528 677.568 892.528 674.496V667.056C892.528 664.016 893.312 661.6 894.88 659.808C896.448 658.016 898.56 657.12 901.216 657.12C903.168 657.12 904.752 657.616 905.968 658.608C907.216 659.568 907.968 660.912 908.224 662.64H908.32V657.6H913.456V692.64H908.272ZM902.992 679.968C904.624 679.968 905.904 679.472 906.832 678.48C907.792 677.456 908.272 676.048 908.272 674.256V667.344C908.272 665.552 907.792 664.16 906.832 663.168C905.904 662.144 904.624 661.632 902.992 661.632C901.296 661.632 899.984 662.128 899.056 663.12C898.16 664.08 897.712 665.488 897.712 667.344V674.256C897.712 676.112 898.16 677.536 899.056 678.528C899.984 679.488 901.296 679.968 902.992 679.968ZM931.821 684.48C928.621 684.48 926.077 683.568 924.189 681.744C922.333 679.888 921.405 677.376 921.405 674.208V657.6H926.589V674.16C926.589 676.016 927.053 677.456 927.981 678.48C928.909 679.472 930.189 679.968 931.821 679.968C933.485 679.968 934.781 679.472 935.709 678.48C936.669 677.456 937.149 676.016 937.149 674.16V657.6H942.333V674.208C942.333 677.376 941.373 679.888 939.453 681.744C937.565 683.568 935.021 684.48 931.821 684.48ZM960.65 684.48C958.506 684.48 956.634 684.064 955.034 683.232C953.434 682.368 952.186 681.168 951.29 679.632C950.426 678.096 949.994 676.304 949.994 674.256V667.344C949.994 665.296 950.426 663.504 951.29 661.968C952.186 660.432 953.434 659.248 955.034 658.416C956.634 657.552 958.506 657.12 960.65 657.12C962.826 657.12 964.714 657.552 966.314 658.416C967.914 659.248 969.146 660.432 970.01 661.968C970.906 663.504 971.354 665.296 971.354 667.344V672.048H954.986V674.256C954.986 678.256 956.89 680.256 960.698 680.256C963.802 680.256 965.594 679.216 966.074 677.136H971.21C970.826 679.376 969.674 681.168 967.754 682.512C965.834 683.824 963.466 684.48 960.65 684.48ZM954.986 667.344V668.544L966.314 668.496V667.296C966.314 665.344 965.834 663.856 964.874 662.832C963.914 661.776 962.506 661.248 960.65 661.248C958.794 661.248 957.386 661.776 956.426 662.832C955.466 663.888 954.986 665.392 954.986 667.344Z" fill="#2F2F2F"/>
<path fill-rule="evenodd" clip-rule="evenodd" d="M1009 303C1018.27 303 1025.9 296 1026.89 287H1080V359H1026.89C1025.9 350 1018.27 343 1009 343C999.059 343 991 351.059 991 361C991 370.941 999.059 379 1009 379C1018.27 379 1025.9 372 1026.89 363H1080V435H1026.89C1025.9 426 1018.27 419 1009 419C999.059 419 991 427.059 991 437C991 446.941 999.059 455 1009 455C1018.27 455 1025.9 448 1026.89 439H1080V587H1026.89C1025.9 578 1018.27 571 1009 571C999.059 571 991 579.059 991 589C991 598.941 999.059 607 1009 607C1018.27 607 1025.9 600 1026.89 591H1080V665H975V669H1084V665V591V587V439V435V363V359V287V283H1080H1026.89C1025.9 274 1018.27 267 1009 267C999.059 267 991 275.059 991 285C991 294.941 999.059 303 1009 303Z" fill="#A4A4A4"/>
<path fill-rule="evenodd" clip-rule="evenodd" d="M100 515V663V667H104H157.11C158.105 676 165.735 683 175 683C184.941 683 193 674.941 193 665C193 655.059 184.941 647 175 647C165.735 647 158.105 654 157.11 663H104V515H157.11C158.105 524 165.735 531 175 531C184.941 531 193 522.941 193 513C193 503.059 184.941 495 175 495C165.735 495 158.105 502 157.11 511H104V211H157.11C158.105 220 165.735 227 175 227C184.941 227 193 218.941 193 209C193 199.059 184.941 191 175 191C165.735 191 158.105 198 157.11 207H104V135H209V131H104H100V135V207V211V511V515Z" fill="#A4A4A4"/>
<rect x="209" y="642" width="293" height="48" rx="24" fill="#DDDDDD"/>
<rect x="225" y="658" width="261" height="16" rx="8" fill="#AAAAAA"/>
<rect x="207" y="414" width="768" height="48" rx="24" fill="#DDDDDD"/>
<rect x="223" y="430" width="706" height="16" rx="8" fill="#AAAAAA"/>
<rect x="206" y="262" width="769" height="48" rx="24" fill="#DDDDDD"/>
<rect x="222" y="278" width="675" height="16" rx="8" fill="#AAAAAA"/>
<rect x="207" y="338" width="768" height="48" rx="24" fill="#DDDDDD"/>
<rect x="223" y="354" width="508" height="16" rx="8" fill="#AAAAAA"/>
<rect x="209" y="566" width="766" height="48" rx="24" fill="#DDDDDD"/>
<rect x="225" y="582" width="293" height="16" rx="8" fill="#AAAAAA"/>
<rect x="207" y="186" width="257" height="48" rx="24" fill="#DDDDDD"/>
<rect x="223" y="202" width="225" height="16" rx="8" fill="#AAAAAA"/>
<rect x="480" y="186" width="251" height="48" rx="24" fill="#DDDDDD"/>
<rect x="496" y="202" width="219" height="16" rx="8" fill="#AAAAAA"/>
<rect x="207" y="490" width="202" height="48" rx="24" fill="#DDDDDD"/>
<rect x="223" y="506" width="168" height="16" rx="8" fill="#AAAAAA"/>
<rect x="425" y="490" width="181" height="48" rx="24" fill="#DDDDDD"/>
<rect x="441" y="506" width="149" height="16" rx="8" fill="#AAAAAA"/>
<rect x="622" y="490" width="141" height="48" rx="24" fill="#DDDDDD"/>
<rect x="638" y="506" width="109" height="16" rx="8" fill="#AAAAAA"/>
<rect x="6" y="6" width="1172" height="786" stroke="#2F2F2F" stroke-width="12"/>
</svg>
