<svg width="2351" height="1527" viewBox="0 0 2351 1527" fill="none" xmlns="http://www.w3.org/2000/svg">
<rect x="6" y="6" width="2339" height="1515" fill="white"/>
<path d="M1070.57 199V157.528H1057.77V152.28H1089.13V157.528H1076.33V199H1070.57ZM1098.07 199V193.752H1110.55V169.048H1099.67V163.8H1116.31V193.752H1128.15V199H1098.07ZM1109.07 157.72L1115.86 148.76H1122.07L1114.96 157.72H1109.07ZM1154.04 199C1151.01 199 1148.64 198.189 1146.94 196.568C1145.27 194.947 1144.44 192.664 1144.44 189.72V169.048H1134.52V163.8H1144.44V153.88H1150.2V163.8H1164.28V169.048H1150.2V189.72C1150.2 192.408 1151.48 193.752 1154.04 193.752H1163.64V199H1154.04ZM1188.51 199.64C1184.46 199.64 1181.22 198.445 1178.78 196.056C1176.35 193.624 1175.14 190.339 1175.14 186.2V163.8H1180.9V186.2C1180.9 188.845 1181.58 190.915 1182.94 192.408C1184.31 193.859 1186.16 194.584 1188.51 194.584C1190.9 194.584 1192.78 193.859 1194.14 192.408C1195.55 190.915 1196.26 188.845 1196.26 186.2V163.8H1202.02V186.2C1202.02 190.339 1200.78 193.624 1198.3 196.056C1195.83 198.445 1192.56 199.64 1188.51 199.64ZM1232.07 199C1228.96 199 1226.46 198.104 1224.58 196.312C1222.75 194.477 1221.83 192.067 1221.83 189.08V157.528H1209.67V152.28H1227.59V189.08C1227.59 190.531 1228 191.683 1228.81 192.536C1229.62 193.347 1230.7 193.752 1232.07 193.752H1242.95V199H1232.07ZM1265.33 199.512C1261.06 199.512 1257.69 198.317 1255.21 195.928C1252.78 193.496 1251.57 190.211 1251.57 186.072V176.728C1251.57 172.547 1252.78 169.261 1255.21 166.872C1257.69 164.483 1261.06 163.288 1265.33 163.288C1269.59 163.288 1272.94 164.483 1275.37 166.872C1277.85 169.261 1279.09 172.525 1279.09 176.664V186.072C1279.09 190.211 1277.85 193.496 1275.37 195.928C1272.94 198.317 1269.59 199.512 1265.33 199.512ZM1265.33 194.392C1267.84 194.392 1269.81 193.688 1271.21 192.28C1272.62 190.872 1273.33 188.803 1273.33 186.072V176.728C1273.33 173.997 1272.62 171.928 1271.21 170.52C1269.81 169.112 1267.84 168.408 1265.33 168.408C1262.85 168.408 1260.89 169.112 1259.44 170.52C1258.03 171.928 1257.33 173.997 1257.33 176.728V186.072C1257.33 188.803 1258.03 190.872 1259.44 192.28C1260.89 193.688 1262.85 194.392 1265.33 194.392ZM1334.27 210.52L1339.45 196.824L1326.4 163.8H1332.8L1340.99 185.56C1341.29 186.285 1341.56 187.16 1341.82 188.184C1342.08 189.165 1342.29 189.997 1342.46 190.68C1342.63 189.997 1342.84 189.165 1343.1 188.184C1343.36 187.16 1343.61 186.285 1343.87 185.56L1351.55 163.8H1357.76L1340.41 210.52H1334.27ZM1405.51 199V152.28H1417.61C1420.64 152.28 1423.24 152.856 1425.42 154.008C1427.64 155.16 1429.34 156.781 1430.54 158.872C1431.77 160.963 1432.39 163.437 1432.39 166.296V184.92C1432.39 187.779 1431.77 190.275 1430.54 192.408C1429.34 194.499 1427.64 196.12 1425.42 197.272C1423.24 198.424 1420.64 199 1417.61 199H1405.51ZM1411.27 193.88H1417.61C1420.43 193.88 1422.62 193.091 1424.2 191.512C1425.82 189.933 1426.63 187.736 1426.63 184.92V166.296C1426.63 163.523 1425.82 161.347 1424.2 159.768C1422.62 158.189 1420.43 157.4 1417.61 157.4H1411.27V193.88ZM1457.2 199.64C1454.43 199.64 1451.99 199.085 1449.9 197.976C1447.86 196.867 1446.26 195.309 1445.1 193.304C1443.99 191.256 1443.44 188.888 1443.44 186.2V176.6C1443.44 173.869 1443.99 171.501 1445.1 169.496C1446.26 167.491 1447.86 165.933 1449.9 164.824C1451.99 163.715 1454.43 163.16 1457.2 163.16C1459.97 163.16 1462.38 163.715 1464.43 164.824C1466.52 165.933 1468.12 167.491 1469.23 169.496C1470.38 171.501 1470.96 173.869 1470.96 176.6V182.808H1449.07V186.2C1449.07 188.973 1449.78 191.107 1451.18 192.6C1452.59 194.051 1454.6 194.776 1457.2 194.776C1459.42 194.776 1461.21 194.392 1462.58 193.624C1463.94 192.813 1464.77 191.619 1465.07 190.04H1470.83C1470.45 192.984 1469 195.331 1466.48 197.08C1464.01 198.787 1460.91 199.64 1457.2 199.64ZM1449.07 178.456H1465.33V176.6C1465.33 173.827 1464.62 171.693 1463.22 170.2C1461.85 168.707 1459.85 167.96 1457.2 167.96C1454.6 167.96 1452.59 168.707 1451.18 170.2C1449.78 171.693 1449.07 173.827 1449.07 176.6V178.456ZM1494.49 199.512C1490.86 199.512 1487.98 198.701 1485.85 197.08C1483.71 195.416 1482.48 193.176 1482.14 190.36H1487.9C1488.15 191.597 1488.83 192.579 1489.94 193.304C1491.1 194.029 1492.61 194.392 1494.49 194.392H1497.18C1499.44 194.392 1501.12 193.944 1502.23 193.048C1503.34 192.109 1503.9 190.872 1503.9 189.336C1503.9 186.435 1501.91 184.664 1497.94 184.024L1493.21 183.256C1489.75 182.659 1487.17 181.592 1485.46 180.056C1483.8 178.477 1482.97 176.195 1482.97 173.208C1482.97 170.051 1483.97 167.619 1485.98 165.912C1487.98 164.163 1490.99 163.288 1495 163.288H1497.43C1500.8 163.288 1503.51 164.077 1505.56 165.656C1507.61 167.235 1508.84 169.368 1509.27 172.056H1503.51C1503.26 170.947 1502.62 170.072 1501.59 169.432C1500.57 168.749 1499.18 168.408 1497.43 168.408H1495C1492.82 168.408 1491.22 168.813 1490.2 169.624C1489.22 170.435 1488.73 171.651 1488.73 173.272C1488.73 174.723 1489.15 175.789 1490.01 176.472C1490.86 177.155 1492.2 177.645 1494.04 177.944L1498.78 178.712C1502.57 179.309 1505.32 180.419 1507.03 182.04C1508.78 183.661 1509.66 186.008 1509.66 189.08C1509.66 192.323 1508.61 194.883 1506.52 196.76C1504.47 198.595 1501.36 199.512 1497.18 199.512H1494.49ZM1534.21 199.64C1529.94 199.64 1526.53 198.445 1523.97 196.056C1521.45 193.667 1520.19 190.381 1520.19 186.2V176.6C1520.19 172.419 1521.45 169.133 1523.97 166.744C1526.53 164.355 1529.94 163.16 1534.21 163.16C1538.26 163.16 1541.52 164.248 1544 166.424C1546.47 168.6 1547.77 171.565 1547.9 175.32H1542.14C1542.01 173.059 1541.25 171.331 1539.84 170.136C1538.47 168.899 1536.6 168.28 1534.21 168.28C1531.69 168.28 1529.68 169.005 1528.19 170.456C1526.7 171.864 1525.95 173.891 1525.95 176.536V186.2C1525.95 188.845 1526.7 190.893 1528.19 192.344C1529.68 193.795 1531.69 194.52 1534.21 194.52C1536.6 194.52 1538.47 193.901 1539.84 192.664C1541.25 191.427 1542.01 189.699 1542.14 187.48H1547.9C1547.77 191.235 1546.47 194.2 1544 196.376C1541.52 198.552 1538.26 199.64 1534.21 199.64ZM1560.23 199V163.8H1565.86V170.072C1567.01 165.464 1570.11 163.16 1575.14 163.16C1578.85 163.16 1581.8 164.333 1583.97 166.68C1586.19 168.984 1587.3 172.12 1587.3 176.088V178.2H1581.54V176.6C1581.54 173.827 1580.86 171.715 1579.49 170.264C1578.17 168.771 1576.27 168.024 1573.8 168.024C1571.37 168.024 1569.45 168.771 1568.04 170.264C1566.67 171.757 1565.99 173.869 1565.99 176.6V199H1560.23ZM1596.94 199V193.752H1609.42V169.048H1598.54V163.8H1615.18V193.752H1627.02V199H1596.94ZM1611.66 157.464C1610.25 157.464 1609.14 157.101 1608.33 156.376C1607.52 155.651 1607.12 154.669 1607.12 153.432C1607.12 152.152 1607.52 151.149 1608.33 150.424C1609.14 149.656 1610.25 149.272 1611.66 149.272C1613.07 149.272 1614.18 149.656 1614.99 150.424C1615.8 151.149 1616.2 152.152 1616.2 153.432C1616.2 154.669 1615.8 155.651 1614.99 156.376C1614.18 157.101 1613.07 157.464 1611.66 157.464ZM1635.76 210.52V163.8H1641.52V170.52H1641.59C1641.89 168.216 1642.89 166.424 1644.6 165.144C1646.34 163.821 1648.54 163.16 1651.19 163.16C1654.73 163.16 1657.54 164.333 1659.64 166.68C1661.77 168.984 1662.84 172.163 1662.84 176.216V186.52C1662.84 190.573 1661.77 193.773 1659.64 196.12C1657.54 198.467 1654.73 199.64 1651.19 199.64C1648.54 199.64 1646.37 198.979 1644.66 197.656C1642.95 196.333 1641.93 194.541 1641.59 192.28H1641.4L1641.52 200.28V210.52H1635.76ZM1649.27 194.648C1651.7 194.648 1653.6 193.923 1654.96 192.472C1656.37 191.021 1657.08 188.931 1657.08 186.2V176.6C1657.08 173.869 1656.37 171.779 1654.96 170.328C1653.6 168.877 1651.7 168.152 1649.27 168.152C1646.92 168.152 1645.04 168.899 1643.64 170.392C1642.23 171.885 1641.52 173.955 1641.52 176.6V186.2C1641.52 188.845 1642.23 190.915 1643.64 192.408C1645.04 193.901 1646.92 194.648 1649.27 194.648ZM1687.71 199.64C1683.44 199.64 1680.03 198.445 1677.47 196.056C1674.95 193.667 1673.69 190.381 1673.69 186.2V176.6C1673.69 172.419 1674.95 169.133 1677.47 166.744C1680.03 164.355 1683.44 163.16 1687.71 163.16C1691.76 163.16 1695.02 164.248 1697.5 166.424C1699.97 168.6 1701.27 171.565 1701.4 175.32H1695.64C1695.51 173.059 1694.75 171.331 1693.34 170.136C1691.97 168.899 1690.1 168.28 1687.71 168.28C1685.19 168.28 1683.18 169.005 1681.69 170.456C1680.2 171.864 1679.45 173.891 1679.45 176.536V186.2C1679.45 188.845 1680.2 190.893 1681.69 192.344C1683.18 193.795 1685.19 194.52 1687.71 194.52C1690.1 194.52 1691.97 193.901 1693.34 192.664C1694.75 191.427 1695.51 189.699 1695.64 187.48H1701.4C1701.27 191.235 1699.97 194.2 1697.5 196.376C1695.02 198.552 1691.76 199.64 1687.71 199.64ZM1712.07 199V193.752H1724.55V169.048H1713.67V163.8H1730.31V193.752H1742.15V199H1712.07ZM1726.79 157.464C1725.38 157.464 1724.27 157.101 1723.46 156.376C1722.65 155.651 1722.24 154.669 1722.24 153.432C1722.24 152.152 1722.65 151.149 1723.46 150.424C1724.27 149.656 1725.38 149.272 1726.79 149.272C1728.19 149.272 1729.3 149.656 1730.11 150.424C1730.92 151.149 1731.33 152.152 1731.33 153.432C1731.33 154.669 1730.92 155.651 1730.11 156.376C1729.3 157.101 1728.19 157.464 1726.79 157.464ZM1764.2 199.512C1759.93 199.512 1756.56 198.317 1754.09 195.928C1751.66 193.496 1750.44 190.211 1750.44 186.072V176.728C1750.44 172.547 1751.66 169.261 1754.09 166.872C1756.56 164.483 1759.93 163.288 1764.2 163.288C1768.47 163.288 1771.82 164.483 1774.25 166.872C1776.72 169.261 1777.96 172.525 1777.96 176.664V186.072C1777.96 190.211 1776.72 193.496 1774.25 195.928C1771.82 198.317 1768.47 199.512 1764.2 199.512ZM1764.2 194.392C1766.72 194.392 1768.68 193.688 1770.09 192.28C1771.5 190.872 1772.2 188.803 1772.2 186.072V176.728C1772.2 173.997 1771.5 171.928 1770.09 170.52C1768.68 169.112 1766.72 168.408 1764.2 168.408C1761.73 168.408 1759.76 169.112 1758.31 170.52C1756.9 171.928 1756.2 173.997 1756.2 176.728V186.072C1756.2 188.803 1756.9 190.872 1758.31 192.28C1759.76 193.688 1761.73 194.392 1764.2 194.392ZM1760.49 157.72L1767.27 148.76H1773.48L1766.38 157.72H1760.49ZM1789.26 199V163.8H1795.02V170.52H1795.09C1795.39 168.173 1796.35 166.36 1797.97 165.08C1799.59 163.8 1801.74 163.16 1804.43 163.16C1807.97 163.16 1810.79 164.248 1812.88 166.424C1814.97 168.6 1816.02 171.565 1816.02 175.32V199H1810.26V175.96C1810.26 173.443 1809.57 171.523 1808.21 170.2C1806.88 168.835 1805.07 168.152 1802.77 168.152C1800.38 168.152 1798.48 168.877 1797.07 170.328C1795.71 171.779 1795.02 173.869 1795.02 176.6V199H1789.26Z" fill="black"/>
<g clip-path="url(#clip0_13:259)">
<rect x="722" y="355" width="1432" height="968" rx="12" fill="white"/>
<rect x="778" y="426" width="200" height="50" rx="8" fill="#A4A4A4"/>
<rect x="1074" y="411" width="1024" height="80" rx="40" fill="#EFEFEF"/>
<rect x="1106" y="443" width="300" height="16" rx="8" fill="#A4A4A4"/>
<path d="M1996.14 451.5L2003.17 444.469C2004.09 443.625 2004.09 442.219 2003.17 441.375L2001.62 439.828C2000.78 438.914 1999.38 438.914 1998.53 439.828L1991.5 446.859L1984.4 439.828C1983.55 438.914 1982.15 438.914 1981.3 439.828L1979.76 441.375C1978.84 442.219 1978.84 443.625 1979.76 444.469L1986.79 451.5L1979.76 458.602C1978.84 459.445 1978.84 460.852 1979.76 461.695L1981.3 463.242C1982.15 464.156 1983.55 464.156 1984.4 463.242L1991.5 456.211L1998.53 463.242C1999.38 464.156 2000.78 464.156 2001.62 463.242L2003.17 461.695C2004.09 460.852 2004.09 459.445 2003.17 458.602L1996.14 451.5Z" fill="#C4C4C4"/>
<path d="M2071.51 464.648L2064.48 457.617C2064.12 457.336 2063.7 457.125 2063.28 457.125H2062.16C2064.05 454.664 2065.25 451.57 2065.25 448.125C2065.25 440.109 2058.64 433.5 2050.62 433.5C2042.54 433.5 2036 440.109 2036 448.125C2036 456.211 2042.54 462.75 2050.62 462.75C2054 462.75 2057.09 461.625 2059.62 459.656V460.852C2059.62 461.273 2059.77 461.695 2060.12 462.047L2067.08 469.008C2067.78 469.711 2068.84 469.711 2069.47 469.008L2071.44 467.039C2072.14 466.406 2072.14 465.352 2071.51 464.648ZM2050.62 457.125C2045.63 457.125 2041.62 453.117 2041.62 448.125C2041.62 443.203 2045.63 439.125 2050.62 439.125C2055.55 439.125 2059.62 443.203 2059.62 448.125C2059.62 453.117 2055.55 457.125 2050.62 457.125Z" fill="#C4C4C4"/>
<rect x="1074" y="551" width="36" height="36" rx="8" fill="#A4A4A4"/>
<rect x="1118" y="557" width="100" height="24" rx="8" fill="#A4A4A4"/>
<rect x="1251" y="551" width="36" height="36" rx="8" fill="#C4C4C4"/>
<rect x="1295" y="557" width="100" height="24" rx="8" fill="#C4C4C4"/>
<rect x="1428" y="551" width="36" height="36" rx="8" fill="#C4C4C4"/>
<rect x="1472" y="557" width="100" height="24" rx="8" fill="#C4C4C4"/>
<rect x="1605" y="551" width="36" height="36" rx="8" fill="#C4C4C4"/>
<rect x="1649" y="557" width="100" height="24" rx="8" fill="#C4C4C4"/>
<path fill-rule="evenodd" clip-rule="evenodd" d="M1219 603H1074V607.51L721.996 608L722 611L2158 609L2158 606L1219 607.308V603Z" fill="#A4A4A4"/>
<rect x="1074" y="663" width="400" height="36" rx="8" fill="#929292"/>
<rect x="1074" y="719" width="600" height="24" rx="8" fill="#C4C4C4"/>
<rect x="1074" y="799" width="637" height="24" rx="8" fill="#C4C4C4"/>
<rect x="1074" y="759" width="560" height="24" rx="8" fill="#C4C4C4"/>
<rect x="1074" y="839" width="387" height="24" rx="8" fill="#C4C4C4"/>
<rect x="1074" y="915" width="400" height="36" rx="8" fill="#929292"/>
<rect x="1074" y="971" width="600" height="24" rx="8" fill="#C4C4C4"/>
<rect x="1074" y="1051" width="637" height="24" rx="8" fill="#C4C4C4"/>
<rect x="1074" y="1011" width="560" height="24" rx="8" fill="#C4C4C4"/>
<rect x="1074" y="1091" width="387" height="24" rx="8" fill="#C4C4C4"/>
<rect x="1074" y="1167" width="400" height="36" rx="8" fill="#929292"/>
<rect x="1074" y="1223" width="600" height="24" rx="8" fill="#C4C4C4"/>
<rect x="1074" y="1303" width="637" height="24" rx="8" fill="#C4C4C4"/>
<rect x="1074" y="1263" width="560" height="24" rx="8" fill="#C4C4C4"/>
<rect x="1798" y="663" width="300" height="300" rx="16" fill="#EFEFEF"/>
<rect x="1798" y="983" width="260" height="24" rx="8" fill="#DFDFDF"/>
<rect x="1798" y="1051" width="231" height="24" rx="8" fill="#DFDFDF"/>
<rect x="1798" y="1017" width="290" height="24" rx="8" fill="#DFDFDF"/>
<rect x="1798" y="1095" width="40" height="40" rx="8" fill="#C4C4C4"/>
<rect x="1853" y="1095" width="40" height="40" rx="8" fill="#C4C4C4"/>
<rect x="1908" y="1095" width="40" height="40" rx="8" fill="#C4C4C4"/>
</g>
<rect x="722" y="355" width="1432" height="968" rx="12" stroke="#2F2F2F" stroke-width="8"/>
<circle cx="1095" cy="680.512" r="12" fill="#2F2F2F"/>
<path d="M1095.3 680.512L466.962 751.665" stroke="#2F2F2F" stroke-width="6" stroke-linecap="round"/>
<circle cx="1310" cy="778.512" r="12" fill="#5F5F5F"/>
<path d="M1310.3 778.512L652 1051" stroke="#5F5F5F" stroke-width="6" stroke-linecap="round"/>
<circle cx="1262" cy="1030.51" r="12" fill="#5F5F5F"/>
<path d="M1262.3 1030.51L652.003 1051.1" stroke="#5F5F5F" stroke-width="6" stroke-linecap="round"/>
<circle cx="1214" cy="1274.51" r="12" fill="#5F5F5F"/>
<path d="M1214.3 1274.51L652 1051" stroke="#5F5F5F" stroke-width="6" stroke-linecap="round"/>
<circle cx="1095" cy="932.512" r="12" fill="#2F2F2F"/>
<path d="M1095.3 932.512L467 752" stroke="#2F2F2F" stroke-width="6" stroke-linecap="round"/>
<circle cx="1095" cy="1184.51" r="12" fill="#2F2F2F"/>
<path d="M1095.3 1184.51L467 752" stroke="#2F2F2F" stroke-width="6" stroke-linecap="round"/>
<path d="M115.6 1063V1036.72H130.72V1039.67H118.804V1047.81H129.46V1050.72H118.804V1060.05H130.72V1063H115.6ZM146.546 1063C144.842 1063 143.51 1062.54 142.55 1061.63C141.614 1060.72 141.146 1059.44 141.146 1057.78V1046.15H135.566V1043.2H141.146V1037.62H144.386V1043.2H152.306V1046.15H144.386V1057.78C144.386 1059.29 145.106 1060.05 146.546 1060.05H151.946V1063H146.546ZM158.232 1063V1060.05H165.252V1046.15H159.132V1043.2H168.492V1060.05H175.152V1063H158.232ZM166.512 1039.64C165.72 1039.64 165.096 1039.43 164.64 1039.02C164.184 1038.62 163.956 1038.06 163.956 1037.37C163.956 1036.65 164.184 1036.08 164.64 1035.68C165.096 1035.24 165.72 1035.03 166.512 1035.03C167.304 1035.03 167.928 1035.24 168.384 1035.68C168.84 1036.08 169.068 1036.65 169.068 1037.37C169.068 1038.06 168.84 1038.62 168.384 1039.02C167.928 1039.43 167.304 1039.64 166.512 1039.64ZM191.806 1069.48V1063.72L191.878 1059.22H191.77C191.602 1060.49 191.038 1061.5 190.078 1062.24C189.118 1062.99 187.894 1063.36 186.406 1063.36C184.414 1063.36 182.83 1062.7 181.654 1061.38C180.502 1060.06 179.926 1058.26 179.926 1055.98V1050.18C179.926 1047.9 180.514 1046.12 181.69 1044.82C182.866 1043.5 184.438 1042.84 186.406 1042.84C187.894 1042.84 189.118 1043.21 190.078 1043.96C191.038 1044.68 191.602 1045.68 191.77 1046.98H191.806V1043.2H195.046V1069.48H191.806ZM187.486 1060.55C188.83 1060.55 189.886 1060.13 190.654 1059.29C191.422 1058.45 191.806 1057.29 191.806 1055.8V1050.4C191.806 1048.91 191.422 1047.75 190.654 1046.91C189.886 1046.07 188.83 1045.65 187.486 1045.65C186.118 1045.65 185.05 1046.06 184.282 1046.87C183.538 1047.69 183.166 1048.86 183.166 1050.4V1055.8C183.166 1057.34 183.538 1058.51 184.282 1059.33C185.05 1060.14 186.118 1060.55 187.486 1060.55ZM209.108 1063.36C206.828 1063.36 205.004 1062.69 203.636 1061.34C202.268 1059.98 201.584 1058.13 201.584 1055.8V1043.2H204.824V1055.8C204.824 1057.29 205.208 1058.45 205.976 1059.29C206.744 1060.11 207.788 1060.52 209.108 1060.52C210.452 1060.52 211.508 1060.11 212.276 1059.29C213.068 1058.45 213.464 1057.29 213.464 1055.8V1043.2H216.704V1055.8C216.704 1058.13 216.008 1059.98 214.616 1061.34C213.224 1062.69 211.388 1063.36 209.108 1063.36ZM230.73 1063.36C229.17 1063.36 227.802 1063.05 226.626 1062.42C225.474 1061.8 224.574 1060.92 223.926 1059.8C223.302 1058.64 222.99 1057.31 222.99 1055.8V1050.4C222.99 1048.86 223.302 1047.53 223.926 1046.4C224.574 1045.28 225.474 1044.4 226.626 1043.78C227.802 1043.15 229.17 1042.84 230.73 1042.84C232.29 1042.84 233.646 1043.15 234.798 1043.78C235.974 1044.4 236.874 1045.28 237.498 1046.4C238.146 1047.53 238.47 1048.86 238.47 1050.4V1053.89H226.158V1055.8C226.158 1057.36 226.554 1058.56 227.346 1059.4C228.138 1060.22 229.266 1060.62 230.73 1060.62C231.978 1060.62 232.986 1060.41 233.754 1059.98C234.522 1059.52 234.99 1058.85 235.158 1057.96H238.398C238.182 1059.62 237.366 1060.94 235.95 1061.92C234.558 1062.88 232.818 1063.36 230.73 1063.36ZM226.158 1051.44H235.302V1050.4C235.302 1048.84 234.906 1047.64 234.114 1046.8C233.346 1045.96 232.218 1045.54 230.73 1045.54C229.266 1045.54 228.138 1045.96 227.346 1046.8C226.554 1047.64 226.158 1048.84 226.158 1050.4V1051.44ZM254.476 1063C252.772 1063 251.44 1062.54 250.48 1061.63C249.544 1060.72 249.076 1059.44 249.076 1057.78V1046.15H243.496V1043.2H249.076V1037.62H252.316V1043.2H260.236V1046.15H252.316V1057.78C252.316 1059.29 253.036 1060.05 254.476 1060.05H259.876V1063H254.476ZM272.174 1063.36C270.086 1063.36 268.442 1062.83 267.242 1061.78C266.042 1060.7 265.442 1059.24 265.442 1057.42C265.442 1055.57 266.042 1054.12 267.242 1053.06C268.442 1052.01 270.062 1051.48 272.102 1051.48H278.222V1049.5C278.222 1048.3 277.85 1047.36 277.106 1046.69C276.386 1046.02 275.354 1045.68 274.01 1045.68C272.834 1045.68 271.862 1045.94 271.094 1046.44C270.326 1046.92 269.858 1047.58 269.69 1048.42H266.45C266.666 1046.72 267.47 1045.36 268.862 1044.35C270.254 1043.34 271.994 1042.84 274.082 1042.84C276.362 1042.84 278.162 1043.43 279.482 1044.6C280.802 1045.78 281.462 1047.38 281.462 1049.39V1063H278.294V1059.22H278.258C278.114 1060.49 277.49 1061.5 276.386 1062.24C275.306 1062.99 273.902 1063.36 272.174 1063.36ZM272.966 1060.8C274.502 1060.8 275.762 1060.42 276.746 1059.65C277.73 1058.88 278.222 1057.9 278.222 1056.7V1053.89H272.174C271.094 1053.89 270.242 1054.19 269.618 1054.79C268.994 1055.39 268.682 1056.21 268.682 1057.24C268.682 1058.34 269.054 1059.22 269.798 1059.87C270.566 1060.49 271.622 1060.8 272.966 1060.8ZM130.54 1107.66L115.06 1099.92V1096.32L130.54 1088.58V1091.71L119.38 1097.18C118.924 1097.4 118.492 1097.59 118.084 1097.76C117.7 1097.9 117.412 1098 117.22 1098.05C117.436 1098.1 117.748 1098.2 118.156 1098.37C118.564 1098.52 118.972 1098.7 119.38 1098.91L130.54 1104.42V1107.66ZM135.962 1110V1090.2H138.806V1092.58H139.022C139.166 1091.74 139.514 1091.08 140.066 1090.6C140.642 1090.09 141.362 1089.84 142.226 1089.84C143.93 1089.84 145.01 1090.75 145.466 1092.58H145.61C145.754 1091.74 146.114 1091.08 146.69 1090.6C147.29 1090.09 148.022 1089.84 148.886 1089.84C150.134 1089.84 151.094 1090.31 151.766 1091.24C152.462 1092.18 152.81 1093.42 152.81 1094.95V1110H149.822V1094.92C149.822 1094.1 149.642 1093.46 149.282 1093.01C148.946 1092.55 148.442 1092.32 147.77 1092.32C147.122 1092.32 146.606 1092.55 146.222 1093.01C145.862 1093.44 145.682 1094.06 145.682 1094.88V1110H143.09V1094.92C143.09 1094.08 142.898 1093.44 142.514 1093.01C142.154 1092.55 141.638 1092.32 140.966 1092.32C140.294 1092.32 139.79 1092.55 139.454 1093.01C139.118 1093.44 138.95 1094.06 138.95 1094.88V1110H135.962ZM165.972 1110.36C164.412 1110.36 163.044 1110.05 161.868 1109.42C160.716 1108.8 159.816 1107.92 159.168 1106.8C158.544 1105.64 158.232 1104.31 158.232 1102.8V1097.4C158.232 1095.86 158.544 1094.53 159.168 1093.4C159.816 1092.28 160.716 1091.4 161.868 1090.78C163.044 1090.15 164.412 1089.84 165.972 1089.84C167.532 1089.84 168.888 1090.15 170.04 1090.78C171.216 1091.4 172.116 1092.28 172.74 1093.4C173.388 1094.53 173.712 1095.86 173.712 1097.4V1100.89H161.4V1102.8C161.4 1104.36 161.796 1105.56 162.588 1106.4C163.38 1107.22 164.508 1107.62 165.972 1107.62C167.22 1107.62 168.228 1107.41 168.996 1106.98C169.764 1106.52 170.232 1105.85 170.4 1104.96H173.64C173.424 1106.62 172.608 1107.94 171.192 1108.92C169.8 1109.88 168.06 1110.36 165.972 1110.36ZM161.4 1098.44H170.544V1097.4C170.544 1095.84 170.148 1094.64 169.356 1093.8C168.588 1092.96 167.46 1092.54 165.972 1092.54C164.508 1092.54 163.38 1092.96 162.588 1093.8C161.796 1094.64 161.4 1095.84 161.4 1097.4V1098.44ZM189.718 1110C188.014 1110 186.682 1109.54 185.722 1108.63C184.786 1107.72 184.318 1106.44 184.318 1104.78V1093.15H178.738V1090.2H184.318V1084.62H187.558V1090.2H195.478V1093.15H187.558V1104.78C187.558 1106.29 188.278 1107.05 189.718 1107.05H195.118V1110H189.718ZM207.416 1110.36C205.328 1110.36 203.684 1109.83 202.484 1108.78C201.284 1107.7 200.684 1106.24 200.684 1104.42C200.684 1102.57 201.284 1101.12 202.484 1100.06C203.684 1099.01 205.304 1098.48 207.344 1098.48H213.464V1096.5C213.464 1095.3 213.092 1094.36 212.348 1093.69C211.628 1093.02 210.596 1092.68 209.252 1092.68C208.076 1092.68 207.104 1092.94 206.336 1093.44C205.568 1093.92 205.1 1094.58 204.932 1095.42H201.692C201.908 1093.72 202.712 1092.36 204.104 1091.35C205.496 1090.34 207.236 1089.84 209.324 1089.84C211.604 1089.84 213.404 1090.43 214.724 1091.6C216.044 1092.78 216.704 1094.38 216.704 1096.39V1110H213.536V1106.22H213.5C213.356 1107.49 212.732 1108.5 211.628 1109.24C210.548 1109.99 209.144 1110.36 207.416 1110.36ZM208.208 1107.8C209.744 1107.8 211.004 1107.42 211.988 1106.65C212.972 1105.88 213.464 1104.9 213.464 1103.7V1100.89H207.416C206.336 1100.89 205.484 1101.19 204.86 1101.79C204.236 1102.39 203.924 1103.21 203.924 1104.24C203.924 1105.34 204.296 1106.22 205.04 1106.87C205.808 1107.49 206.864 1107.8 208.208 1107.8ZM244.828 1110V1090.2H248.068V1093.98H248.104C248.272 1092.66 248.812 1091.64 249.724 1090.92C250.636 1090.2 251.848 1089.84 253.36 1089.84C255.352 1089.84 256.936 1090.45 258.112 1091.68C259.288 1092.9 259.876 1094.57 259.876 1096.68V1110H256.636V1097.04C256.636 1095.62 256.252 1094.54 255.484 1093.8C254.74 1093.03 253.72 1092.65 252.424 1092.65C251.08 1092.65 250.012 1093.06 249.22 1093.87C248.452 1094.69 248.068 1095.86 248.068 1097.4V1110H244.828ZM272.174 1110.36C270.086 1110.36 268.442 1109.83 267.242 1108.78C266.042 1107.7 265.442 1106.24 265.442 1104.42C265.442 1102.57 266.042 1101.12 267.242 1100.06C268.442 1099.01 270.062 1098.48 272.102 1098.48H278.222V1096.5C278.222 1095.3 277.85 1094.36 277.106 1093.69C276.386 1093.02 275.354 1092.68 274.01 1092.68C272.834 1092.68 271.862 1092.94 271.094 1093.44C270.326 1093.92 269.858 1094.58 269.69 1095.42H266.45C266.666 1093.72 267.47 1092.36 268.862 1091.35C270.254 1090.34 271.994 1089.84 274.082 1089.84C276.362 1089.84 278.162 1090.43 279.482 1091.6C280.802 1092.78 281.462 1094.38 281.462 1096.39V1110H278.294V1106.22H278.258C278.114 1107.49 277.49 1108.5 276.386 1109.24C275.306 1109.99 273.902 1110.36 272.174 1110.36ZM272.966 1107.8C274.502 1107.8 275.762 1107.42 276.746 1106.65C277.73 1105.88 278.222 1104.9 278.222 1103.7V1100.89H272.174C271.094 1100.89 270.242 1101.19 269.618 1101.79C268.994 1102.39 268.682 1103.21 268.682 1104.24C268.682 1105.34 269.054 1106.22 269.798 1106.87C270.566 1107.49 271.622 1107.8 272.966 1107.8ZM287.063 1110V1090.2H289.908V1092.58H290.124C290.268 1091.74 290.616 1091.08 291.168 1090.6C291.744 1090.09 292.464 1089.84 293.328 1089.84C295.032 1089.84 296.112 1090.75 296.568 1092.58H296.712C296.856 1091.74 297.216 1091.08 297.792 1090.6C298.392 1090.09 299.124 1089.84 299.988 1089.84C301.236 1089.84 302.196 1090.31 302.867 1091.24C303.564 1092.18 303.912 1093.42 303.912 1094.95V1110H300.924V1094.92C300.924 1094.1 300.744 1093.46 300.384 1093.01C300.048 1092.55 299.544 1092.32 298.872 1092.32C298.224 1092.32 297.708 1092.55 297.324 1093.01C296.964 1093.44 296.784 1094.06 296.784 1094.88V1110H294.191V1094.92C294.191 1094.08 294 1093.44 293.616 1093.01C293.256 1092.55 292.74 1092.32 292.068 1092.32C291.396 1092.32 290.892 1092.55 290.556 1093.01C290.22 1093.44 290.052 1094.06 290.052 1094.88V1110H287.063ZM317.073 1110.36C315.513 1110.36 314.145 1110.05 312.969 1109.42C311.817 1108.8 310.917 1107.92 310.269 1106.8C309.645 1105.64 309.333 1104.31 309.333 1102.8V1097.4C309.333 1095.86 309.645 1094.53 310.269 1093.4C310.917 1092.28 311.817 1091.4 312.969 1090.78C314.145 1090.15 315.513 1089.84 317.073 1089.84C318.633 1089.84 319.989 1090.15 321.141 1090.78C322.317 1091.4 323.217 1092.28 323.841 1093.4C324.489 1094.53 324.813 1095.86 324.813 1097.4V1100.89H312.501V1102.8C312.501 1104.36 312.897 1105.56 313.689 1106.4C314.481 1107.22 315.609 1107.62 317.073 1107.62C318.321 1107.62 319.329 1107.41 320.097 1106.98C320.865 1106.52 321.333 1105.85 321.501 1104.96H324.741C324.525 1106.62 323.709 1107.94 322.293 1108.92C320.901 1109.88 319.161 1110.36 317.073 1110.36ZM312.501 1098.44H321.645V1097.4C321.645 1095.84 321.249 1094.64 320.457 1093.8C319.689 1092.96 318.561 1092.54 317.073 1092.54C315.609 1092.54 314.481 1092.96 313.689 1093.8C312.897 1094.64 312.501 1095.84 312.501 1097.4V1098.44ZM330.919 1095.24V1092.36H346.399V1095.24H330.919ZM330.919 1103.88V1101H346.399V1103.88H330.919ZM360.785 1093.26L363.665 1082.06H368.345L363.665 1093.26H360.785ZM352.505 1093.26L355.385 1082.06H360.065L355.385 1093.26H352.505ZM380.679 1110.36C378.711 1110.36 377.115 1109.7 375.891 1108.38C374.691 1107.06 374.091 1105.27 374.091 1103.02V1097.22C374.091 1094.94 374.691 1093.14 375.891 1091.82C377.091 1090.5 378.687 1089.84 380.679 1089.84C382.167 1089.84 383.391 1090.21 384.351 1090.96C385.311 1091.7 385.875 1092.71 386.043 1093.98H386.151L386.079 1089.48V1083.72H389.319V1110H386.079V1106.22H386.043C385.875 1107.52 385.311 1108.54 384.351 1109.28C383.391 1110 382.167 1110.36 380.679 1110.36ZM381.759 1107.55C383.103 1107.55 384.159 1107.13 384.927 1106.29C385.695 1105.45 386.079 1104.29 386.079 1102.8V1097.4C386.079 1095.91 385.695 1094.75 384.927 1093.91C384.159 1093.07 383.103 1092.65 381.759 1092.65C380.391 1092.65 379.311 1093.06 378.519 1093.87C377.727 1094.69 377.331 1095.86 377.331 1097.4V1102.8C377.331 1104.34 377.727 1105.51 378.519 1106.33C379.311 1107.14 380.391 1107.55 381.759 1107.55ZM403.417 1110.36C401.857 1110.36 400.489 1110.05 399.313 1109.42C398.161 1108.8 397.261 1107.92 396.613 1106.8C395.989 1105.64 395.677 1104.31 395.677 1102.8V1097.4C395.677 1095.86 395.989 1094.53 396.613 1093.4C397.261 1092.28 398.161 1091.4 399.313 1090.78C400.489 1090.15 401.857 1089.84 403.417 1089.84C404.977 1089.84 406.333 1090.15 407.485 1090.78C408.661 1091.4 409.561 1092.28 410.185 1093.4C410.833 1094.53 411.157 1095.86 411.157 1097.4V1100.89H398.845V1102.8C398.845 1104.36 399.241 1105.56 400.033 1106.4C400.825 1107.22 401.953 1107.62 403.417 1107.62C404.665 1107.62 405.673 1107.41 406.441 1106.98C407.209 1106.52 407.677 1105.85 407.845 1104.96H411.085C410.869 1106.62 410.053 1107.94 408.637 1108.92C407.245 1109.88 405.505 1110.36 403.417 1110.36ZM398.845 1098.44H407.989V1097.4C407.989 1095.84 407.593 1094.64 406.801 1093.8C406.033 1092.96 404.905 1092.54 403.417 1092.54C401.953 1092.54 400.825 1092.96 400.033 1093.8C399.241 1094.64 398.845 1095.84 398.845 1097.4V1098.44ZM424.391 1110.29C422.351 1110.29 420.731 1109.83 419.531 1108.92C418.331 1107.98 417.635 1106.72 417.443 1105.14H420.683C420.827 1105.84 421.211 1106.39 421.835 1106.8C422.483 1107.2 423.335 1107.41 424.391 1107.41H425.903C427.175 1107.41 428.123 1107.16 428.747 1106.65C429.371 1106.12 429.683 1105.43 429.683 1104.56C429.683 1102.93 428.567 1101.94 426.335 1101.58L423.671 1101.14C421.727 1100.81 420.275 1100.21 419.315 1099.34C418.379 1098.46 417.911 1097.17 417.911 1095.49C417.911 1093.72 418.475 1092.35 419.603 1091.39C420.731 1090.4 422.423 1089.91 424.679 1089.91H426.047C427.943 1089.91 429.467 1090.36 430.619 1091.24C431.771 1092.13 432.467 1093.33 432.707 1094.84H429.467C429.323 1094.22 428.963 1093.73 428.387 1093.37C427.811 1092.98 427.031 1092.79 426.047 1092.79H424.679C423.455 1092.79 422.555 1093.02 421.979 1093.48C421.427 1093.93 421.151 1094.62 421.151 1095.53C421.151 1096.34 421.391 1096.94 421.871 1097.33C422.351 1097.71 423.107 1097.99 424.139 1098.16L426.803 1098.59C428.939 1098.92 430.487 1099.55 431.447 1100.46C432.431 1101.37 432.923 1102.69 432.923 1104.42C432.923 1106.24 432.335 1107.68 431.159 1108.74C430.007 1109.77 428.255 1110.29 425.903 1110.29H424.391ZM446.733 1110.36C444.333 1110.36 442.413 1109.69 440.973 1108.34C439.557 1107 438.849 1105.15 438.849 1102.8V1097.4C438.849 1095.05 439.557 1093.2 440.973 1091.86C442.413 1090.51 444.333 1089.84 446.733 1089.84C449.013 1089.84 450.849 1090.45 452.241 1091.68C453.633 1092.9 454.365 1094.57 454.437 1096.68H451.197C451.125 1095.41 450.693 1094.44 449.901 1093.76C449.133 1093.07 448.077 1092.72 446.733 1092.72C445.317 1092.72 444.189 1093.13 443.349 1093.94C442.509 1094.74 442.089 1095.88 442.089 1097.36V1102.8C442.089 1104.29 442.509 1105.44 443.349 1106.26C444.189 1107.07 445.317 1107.48 446.733 1107.48C448.077 1107.48 449.133 1107.13 449.901 1106.44C450.693 1105.74 451.125 1104.77 451.197 1103.52H454.437C454.365 1105.63 453.633 1107.3 452.241 1108.52C450.849 1109.75 449.013 1110.36 446.733 1110.36ZM461.371 1110V1090.2H464.539V1093.73C465.187 1091.14 466.927 1089.84 469.759 1089.84C471.847 1089.84 473.503 1090.5 474.727 1091.82C475.975 1093.12 476.599 1094.88 476.599 1097.11V1098.3H473.359V1097.4C473.359 1095.84 472.975 1094.65 472.207 1093.84C471.463 1093 470.395 1092.58 469.003 1092.58C467.635 1092.58 466.555 1093 465.763 1093.84C464.995 1094.68 464.611 1095.86 464.611 1097.4V1110H461.371ZM482.021 1110V1107.05H489.041V1093.15H482.921V1090.2H492.281V1107.05H498.941V1110H482.021ZM490.301 1086.64C489.509 1086.64 488.885 1086.43 488.429 1086.02C487.973 1085.62 487.745 1085.06 487.745 1084.37C487.745 1083.65 487.973 1083.08 488.429 1082.68C488.885 1082.24 489.509 1082.03 490.301 1082.03C491.093 1082.03 491.717 1082.24 492.173 1082.68C492.629 1083.08 492.857 1083.65 492.857 1084.37C492.857 1085.06 492.629 1085.62 492.173 1086.02C491.717 1086.43 491.093 1086.64 490.301 1086.64ZM503.859 1116.48V1090.2H507.099V1093.98H507.135C507.303 1092.68 507.867 1091.68 508.827 1090.96C509.811 1090.21 511.047 1089.84 512.535 1089.84C514.527 1089.84 516.111 1090.5 517.287 1091.82C518.487 1093.12 519.087 1094.9 519.087 1097.18V1102.98C519.087 1105.26 518.487 1107.06 517.287 1108.38C516.111 1109.7 514.527 1110.36 512.535 1110.36C511.047 1110.36 509.823 1109.99 508.863 1109.24C507.903 1108.5 507.327 1107.49 507.135 1106.22H507.027L507.099 1110.72V1116.48H503.859ZM511.455 1107.55C512.823 1107.55 513.891 1107.14 514.659 1106.33C515.451 1105.51 515.847 1104.34 515.847 1102.8V1097.4C515.847 1095.86 515.451 1094.69 514.659 1093.87C513.891 1093.06 512.823 1092.65 511.455 1092.65C510.135 1092.65 509.079 1093.07 508.287 1093.91C507.495 1094.75 507.099 1095.91 507.099 1097.4V1102.8C507.099 1104.29 507.495 1105.45 508.287 1106.29C509.079 1107.13 510.135 1107.55 511.455 1107.55ZM535.093 1110C533.389 1110 532.057 1109.54 531.097 1108.63C530.161 1107.72 529.693 1106.44 529.693 1104.78V1093.15H524.113V1090.2H529.693V1084.62H532.933V1090.2H540.853V1093.15H532.933V1104.78C532.933 1106.29 533.653 1107.05 535.093 1107.05H540.493V1110H535.093ZM546.779 1110V1107.05H553.799V1093.15H547.679V1090.2H557.039V1107.05H563.699V1110H546.779ZM555.059 1086.64C554.267 1086.64 553.643 1086.43 553.187 1086.02C552.731 1085.62 552.503 1085.06 552.503 1084.37C552.503 1083.65 552.731 1083.08 553.187 1082.68C553.643 1082.24 554.267 1082.03 555.059 1082.03C555.851 1082.03 556.475 1082.24 556.931 1082.68C557.387 1083.08 557.615 1083.65 557.615 1084.37C557.615 1085.06 557.387 1085.62 556.931 1086.02C556.475 1086.43 555.851 1086.64 555.059 1086.64ZM576.105 1110.29C573.705 1110.29 571.809 1109.62 570.417 1108.27C569.049 1106.9 568.365 1105.06 568.365 1102.73V1097.47C568.365 1095.12 569.049 1093.27 570.417 1091.93C571.809 1090.58 573.705 1089.91 576.105 1089.91C578.505 1089.91 580.389 1090.58 581.757 1091.93C583.149 1093.27 583.845 1095.11 583.845 1097.44V1102.73C583.845 1105.06 583.149 1106.9 581.757 1108.27C580.389 1109.62 578.505 1110.29 576.105 1110.29ZM576.105 1107.41C577.521 1107.41 578.625 1107.01 579.417 1106.22C580.209 1105.43 580.605 1104.26 580.605 1102.73V1097.47C580.605 1095.94 580.209 1094.77 579.417 1093.98C578.625 1093.19 577.521 1092.79 576.105 1092.79C574.713 1092.79 573.609 1093.19 572.793 1093.98C572.001 1094.77 571.605 1095.94 571.605 1097.47V1102.73C571.605 1104.26 572.001 1105.43 572.793 1106.22C573.609 1107.01 574.713 1107.41 576.105 1107.41ZM590.203 1110V1090.2H593.443V1093.98H593.479C593.647 1092.66 594.187 1091.64 595.099 1090.92C596.011 1090.2 597.223 1089.84 598.735 1089.84C600.727 1089.84 602.311 1090.45 603.487 1091.68C604.663 1092.9 605.251 1094.57 605.251 1096.68V1110H602.011V1097.04C602.011 1095.62 601.627 1094.54 600.859 1093.8C600.115 1093.03 599.095 1092.65 597.799 1092.65C596.455 1092.65 595.387 1093.06 594.595 1093.87C593.827 1094.69 593.443 1095.86 593.443 1097.4V1110H590.203ZM619.817 1093.26L622.697 1082.06H627.377L622.697 1093.26H619.817ZM611.537 1093.26L614.417 1082.06H619.097L614.417 1093.26H611.537ZM633.123 1107.66V1104.53L644.283 1099.06C644.739 1098.84 645.159 1098.66 645.543 1098.52C645.951 1098.35 646.251 1098.24 646.443 1098.19C646.227 1098.14 645.915 1098.05 645.507 1097.9C645.099 1097.74 644.691 1097.54 644.283 1097.33L633.123 1091.82V1088.58L648.603 1096.32V1099.92L633.123 1107.66Z" fill="black"/>
<path d="M115.6 741V714.72H130.72V717.672H118.804V725.808H129.46V728.724H118.804V738.048H130.72V741H115.6ZM146.546 741C144.842 741 143.51 740.544 142.55 739.632C141.614 738.72 141.146 737.436 141.146 735.78V724.152H135.566V721.2H141.146V715.62H144.386V721.2H152.306V724.152H144.386V735.78C144.386 737.292 145.106 738.048 146.546 738.048H151.946V741H146.546ZM158.232 741V738.048H165.252V724.152H159.132V721.2H168.492V738.048H175.152V741H158.232ZM166.512 717.636C165.72 717.636 165.096 717.432 164.64 717.024C164.184 716.616 163.956 716.064 163.956 715.368C163.956 714.648 164.184 714.084 164.64 713.676C165.096 713.244 165.72 713.028 166.512 713.028C167.304 713.028 167.928 713.244 168.384 713.676C168.84 714.084 169.068 714.648 169.068 715.368C169.068 716.064 168.84 716.616 168.384 717.024C167.928 717.432 167.304 717.636 166.512 717.636ZM191.806 747.48V741.72L191.878 737.22H191.77C191.602 738.492 191.038 739.5 190.078 740.244C189.118 740.988 187.894 741.36 186.406 741.36C184.414 741.36 182.83 740.7 181.654 739.38C180.502 738.06 179.926 736.26 179.926 733.98V728.184C179.926 725.904 180.514 724.116 181.69 722.82C182.866 721.5 184.438 720.84 186.406 720.84C187.894 720.84 189.118 721.212 190.078 721.956C191.038 722.676 191.602 723.684 191.77 724.98H191.806V721.2H195.046V747.48H191.806ZM187.486 738.552C188.83 738.552 189.886 738.132 190.654 737.292C191.422 736.452 191.806 735.288 191.806 733.8V728.4C191.806 726.912 191.422 725.748 190.654 724.908C189.886 724.068 188.83 723.648 187.486 723.648C186.118 723.648 185.05 724.056 184.282 724.872C183.538 725.688 183.166 726.864 183.166 728.4V733.8C183.166 735.336 183.538 736.512 184.282 737.328C185.05 738.144 186.118 738.552 187.486 738.552ZM209.108 741.36C206.828 741.36 205.004 740.688 203.636 739.344C202.268 737.976 201.584 736.128 201.584 733.8V721.2H204.824V733.8C204.824 735.288 205.208 736.452 205.976 737.292C206.744 738.108 207.788 738.516 209.108 738.516C210.452 738.516 211.508 738.108 212.276 737.292C213.068 736.452 213.464 735.288 213.464 733.8V721.2H216.704V733.8C216.704 736.128 216.008 737.976 214.616 739.344C213.224 740.688 211.388 741.36 209.108 741.36ZM230.73 741.36C229.17 741.36 227.802 741.048 226.626 740.424C225.474 739.8 224.574 738.924 223.926 737.796C223.302 736.644 222.99 735.312 222.99 733.8V728.4C222.99 726.864 223.302 725.532 223.926 724.404C224.574 723.276 225.474 722.4 226.626 721.776C227.802 721.152 229.17 720.84 230.73 720.84C232.29 720.84 233.646 721.152 234.798 721.776C235.974 722.4 236.874 723.276 237.498 724.404C238.146 725.532 238.47 726.864 238.47 728.4V731.892H226.158V733.8C226.158 735.36 226.554 736.56 227.346 737.4C228.138 738.216 229.266 738.624 230.73 738.624C231.978 738.624 232.986 738.408 233.754 737.976C234.522 737.52 234.99 736.848 235.158 735.96H238.398C238.182 737.616 237.366 738.936 235.95 739.92C234.558 740.88 232.818 741.36 230.73 741.36ZM226.158 729.444H235.302V728.4C235.302 726.84 234.906 725.64 234.114 724.8C233.346 723.96 232.218 723.54 230.73 723.54C229.266 723.54 228.138 723.96 227.346 724.8C226.554 725.64 226.158 726.84 226.158 728.4V729.444ZM254.476 741C252.772 741 251.44 740.544 250.48 739.632C249.544 738.72 249.076 737.436 249.076 735.78V724.152H243.496V721.2H249.076V715.62H252.316V721.2H260.236V724.152H252.316V735.78C252.316 737.292 253.036 738.048 254.476 738.048H259.876V741H254.476ZM272.174 741.36C270.086 741.36 268.442 740.832 267.242 739.776C266.042 738.696 265.442 737.244 265.442 735.42C265.442 733.572 266.042 732.12 267.242 731.064C268.442 730.008 270.062 729.48 272.102 729.48H278.222V727.5C278.222 726.3 277.85 725.364 277.106 724.692C276.386 724.02 275.354 723.684 274.01 723.684C272.834 723.684 271.862 723.936 271.094 724.44C270.326 724.92 269.858 725.58 269.69 726.42H266.45C266.666 724.716 267.47 723.36 268.862 722.352C270.254 721.344 271.994 720.84 274.082 720.84C276.362 720.84 278.162 721.428 279.482 722.604C280.802 723.78 281.462 725.376 281.462 727.392V741H278.294V737.22H278.258C278.114 738.492 277.49 739.5 276.386 740.244C275.306 740.988 273.902 741.36 272.174 741.36ZM272.966 738.804C274.502 738.804 275.762 738.42 276.746 737.652C277.73 736.884 278.222 735.9 278.222 734.7V731.892H272.174C271.094 731.892 270.242 732.192 269.618 732.792C268.994 733.392 268.682 734.208 268.682 735.24C268.682 736.344 269.054 737.22 269.798 737.868C270.566 738.492 271.622 738.804 272.966 738.804ZM130.54 785.66L115.06 777.92V774.32L130.54 766.58V769.712L119.38 775.184C118.924 775.4 118.492 775.592 118.084 775.76C117.7 775.904 117.412 776 117.22 776.048C117.436 776.096 117.748 776.204 118.156 776.372C118.564 776.516 118.972 776.696 119.38 776.912L130.54 782.42V785.66ZM146.546 788C144.842 788 143.51 787.544 142.55 786.632C141.614 785.72 141.146 784.436 141.146 782.78V771.152H135.566V768.2H141.146V762.62H144.386V768.2H152.306V771.152H144.386V782.78C144.386 784.292 145.106 785.048 146.546 785.048H151.946V788H146.546ZM158.232 788V785.048H165.252V771.152H159.132V768.2H168.492V785.048H175.152V788H158.232ZM166.512 764.636C165.72 764.636 165.096 764.432 164.64 764.024C164.184 763.616 163.956 763.064 163.956 762.368C163.956 761.648 164.184 761.084 164.64 760.676C165.096 760.244 165.72 760.028 166.512 760.028C167.304 760.028 167.928 760.244 168.384 760.676C168.84 761.084 169.068 761.648 169.068 762.368C169.068 763.064 168.84 763.616 168.384 764.024C167.928 764.432 167.304 764.636 166.512 764.636ZM189.718 788C188.014 788 186.682 787.544 185.722 786.632C184.786 785.72 184.318 784.436 184.318 782.78V771.152H178.738V768.2H184.318V762.62H187.558V768.2H195.478V771.152H187.558V782.78C187.558 784.292 188.278 785.048 189.718 785.048H195.118V788H189.718ZM212.024 788C210.272 788 208.868 787.496 207.812 786.488C206.78 785.456 206.264 784.1 206.264 782.42V764.672H199.424V761.72H209.504V782.42C209.504 783.236 209.732 783.884 210.188 784.364C210.644 784.82 211.256 785.048 212.024 785.048H218.144V788H212.024ZM230.73 788.36C229.17 788.36 227.802 788.048 226.626 787.424C225.474 786.8 224.574 785.924 223.926 784.796C223.302 783.644 222.99 782.312 222.99 780.8V775.4C222.99 773.864 223.302 772.532 223.926 771.404C224.574 770.276 225.474 769.4 226.626 768.776C227.802 768.152 229.17 767.84 230.73 767.84C232.29 767.84 233.646 768.152 234.798 768.776C235.974 769.4 236.874 770.276 237.498 771.404C238.146 772.532 238.47 773.864 238.47 775.4V778.892H226.158V780.8C226.158 782.36 226.554 783.56 227.346 784.4C228.138 785.216 229.266 785.624 230.73 785.624C231.978 785.624 232.986 785.408 233.754 784.976C234.522 784.52 234.99 783.848 235.158 782.96H238.398C238.182 784.616 237.366 785.936 235.95 786.92C234.558 787.88 232.818 788.36 230.73 788.36ZM226.158 776.444H235.302V775.4C235.302 773.84 234.906 772.64 234.114 771.8C233.346 770.96 232.218 770.54 230.73 770.54C229.266 770.54 228.138 770.96 227.346 771.8C226.554 772.64 226.158 773.84 226.158 775.4V776.444ZM244.576 785.66V782.528L255.736 777.056C256.192 776.84 256.612 776.66 256.996 776.516C257.404 776.348 257.704 776.24 257.896 776.192C257.68 776.144 257.368 776.048 256.96 775.904C256.552 775.736 256.144 775.544 255.736 775.328L244.576 769.82V766.58L260.056 774.32V777.92L244.576 785.66ZM286.128 791.96L287.676 787.892L267.767 777.92V774.32L283.247 766.58V769.82L272.087 775.256C271.679 775.472 271.307 775.652 270.971 775.796C270.635 775.94 270.383 776.036 270.215 776.084C270.383 776.132 270.635 776.228 270.971 776.372C271.307 776.516 271.679 776.696 272.087 776.912L288.684 785.192L298.908 758.12H302.328L289.548 791.96H286.128ZM319.233 788C317.529 788 316.197 787.544 315.237 786.632C314.301 785.72 313.833 784.436 313.833 782.78V771.152H308.253V768.2H313.833V762.62H317.073V768.2H324.993V771.152H317.073V782.78C317.073 784.292 317.793 785.048 319.233 785.048H324.633V788H319.233ZM330.919 788V785.048H337.939V771.152H331.819V768.2H341.179V785.048H347.839V788H330.919ZM339.199 764.636C338.407 764.636 337.783 764.432 337.327 764.024C336.871 763.616 336.643 763.064 336.643 762.368C336.643 761.648 336.871 761.084 337.327 760.676C337.783 760.244 338.407 760.028 339.199 760.028C339.991 760.028 340.615 760.244 341.071 760.676C341.527 761.084 341.755 761.648 341.755 762.368C341.755 763.064 341.527 763.616 341.071 764.024C340.615 764.432 339.991 764.636 339.199 764.636ZM362.405 788C360.701 788 359.369 787.544 358.409 786.632C357.473 785.72 357.005 784.436 357.005 782.78V771.152H351.425V768.2H357.005V762.62H360.245V768.2H368.165V771.152H360.245V782.78C360.245 784.292 360.965 785.048 362.405 785.048H367.805V788H362.405ZM384.711 788C382.959 788 381.555 787.496 380.499 786.488C379.467 785.456 378.951 784.1 378.951 782.42V764.672H372.111V761.72H382.191V782.42C382.191 783.236 382.419 783.884 382.875 784.364C383.331 784.82 383.943 785.048 384.711 785.048H390.831V788H384.711ZM403.417 788.36C401.857 788.36 400.489 788.048 399.313 787.424C398.161 786.8 397.261 785.924 396.613 784.796C395.989 783.644 395.677 782.312 395.677 780.8V775.4C395.677 773.864 395.989 772.532 396.613 771.404C397.261 770.276 398.161 769.4 399.313 768.776C400.489 768.152 401.857 767.84 403.417 767.84C404.977 767.84 406.333 768.152 407.485 768.776C408.661 769.4 409.561 770.276 410.185 771.404C410.833 772.532 411.157 773.864 411.157 775.4V778.892H398.845V780.8C398.845 782.36 399.241 783.56 400.033 784.4C400.825 785.216 401.953 785.624 403.417 785.624C404.665 785.624 405.673 785.408 406.441 784.976C407.209 784.52 407.677 783.848 407.845 782.96H411.085C410.869 784.616 410.053 785.936 408.637 786.92C407.245 787.88 405.505 788.36 403.417 788.36ZM398.845 776.444H407.989V775.4C407.989 773.84 407.593 772.64 406.801 771.8C406.033 770.96 404.905 770.54 403.417 770.54C401.953 770.54 400.825 770.96 400.033 771.8C399.241 772.64 398.845 773.84 398.845 775.4V776.444ZM417.263 785.66V782.528L428.423 777.056C428.879 776.84 429.299 776.66 429.683 776.516C430.091 776.348 430.391 776.24 430.583 776.192C430.367 776.144 430.055 776.048 429.647 775.904C429.239 775.736 428.831 775.544 428.423 775.328L417.263 769.82V766.58L432.743 774.32V777.92L417.263 785.66Z" fill="black"/>
<rect x="6" y="6" width="2339" height="1515" stroke="black" stroke-width="12"/>
<defs>
<clipPath id="clip0_13:259">
</clipPath>
</defs>
</svg>
